<?xml version="1.0" encoding="UTF-8"?><svg id="Layer_2" xmlns="http://www.w3.org/2000/svg" xmlns:xlink="http://www.w3.org/1999/xlink" viewBox="0 0 593.58 491.66"><defs><style>.cls-1{fill:#010101;}.cls-2{fill:url(#linear-gradient-2);}.cls-3{fill:url(#linear-gradient);}.cls-4{fill:#1b1b1e;}</style><linearGradient id="linear-gradient" x1="314.18" y1="421.74" x2="580.28" y2="421.74" gradientTransform="translate(0 502.03) scale(1 -1)" gradientUnits="userSpaceOnUse"><stop offset="0" stop-color="#0097a1"/><stop offset="1" stop-color="#71cddf"/></linearGradient><linearGradient id="linear-gradient-2" x1="8.05" y1="355.75" x2="576.6" y2="355.75" gradientUnits="userSpaceOnUse"><stop offset="0" stop-color="#e6ab19"/><stop offset="1" stop-color="#ea870a"/></linearGradient></defs><g id="Layer_2-2"><path class="cls-3" d="M498.93,160.56c3.68-2.39,7.34-4.78,10.9-7.31,3.59-2.48,7.09-5.07,10.5-7.75,6.82-5.37,13.33-11.06,19.28-17.21,5.97-6.13,11.4-12.71,15.93-19.75,2.25-3.53,4.3-7.15,6.03-10.88,1.72-3.73,3.14-7.56,4.18-11.44,2.06-7.76,2.49-15.75.93-23.3-.39-1.88-.9-3.76-1.54-5.55-.63-1.8-1.34-3.57-2.21-5.27-1.7-3.42-3.85-6.62-6.39-9.55-5.05-5.88-11.49-10.74-18.61-14.56-7.09-3.9-14.86-6.8-22.86-9-8-2.23-16.28-3.71-24.65-4.65-8.37-.98-16.84-1.31-25.33-1.26-16.99.14-34.04,2.14-50.84,5.55-16.81,3.4-33.39,8.28-49.47,14.59-8.05,3.14-15.96,6.68-23.72,10.57-3.86,1.98-7.72,4.01-11.48,6.21-3.82,2.11-7.5,4.47-11.22,6.8,12.97-11.85,27.89-21.63,43.67-29.69,15.8-8.05,32.54-14.35,49.77-18.92,8.62-2.29,17.37-4.14,26.22-5.48,8.84-1.39,17.79-2.22,26.77-2.57,8.99-.34,18.02-.07,27.04.78,9.02.9,18.01,2.48,26.87,4.88,8.83,2.49,17.55,5.77,25.76,10.36,8.17,4.6,15.9,10.5,22.06,18.08,3.07,3.78,5.72,7.97,7.77,12.44,2.07,4.47,3.5,9.25,4.27,14.07.78,4.83.93,9.74.48,14.55-.46,4.81-1.5,9.51-2.97,14-2.96,9-7.65,17.13-13.15,24.4-5.52,7.28-11.89,13.72-18.71,19.51-6.84,5.76-14.12,10.9-21.73,15.42-3.8,2.25-7.66,4.4-11.58,6.39-3.95,1.95-7.91,3.84-11.97,5.53h0Z"/><path class="cls-4" d="M21.32,231.78V91.87H0v-22.1h21.32v-21.06C21.32,24.2,30.98,3.43,61.85,3.43c4.8,0,10.8.78,14.05,1.74v22.74c-2.95-.64-6.62-1.3-10.65-1.3-12.79,0-17.03,7.64-17.03,23.03v20.14h25.77v22.1h-25.77v139.91h-26.9,0Z"/><path class="cls-4" d="M180.15,186.79c0,21,0,37.09.33,44.99h-25.64c-.8-4.74-1.13-11.34-1.28-20.83-6.26,15.83-19.86,23.7-39.19,23.7s-41.75-8.42-41.75-48.43v-116.45h27.08v110.34c0,19.79,5.46,31.71,23.59,31.71s29.8-10.3,29.8-43.52v-98.54h27.08v117.03h-.02Z"/><path class="cls-4" d="M213.26,184.65c.89,16.11,9.57,29.05,28.03,29.05,17.18,0,25.44-9.89,25.44-23.93,0-15.71-8.17-23.15-29.65-31.19-35.43-13.08-45.45-25.34-45.45-48.14s13.87-43.51,49.06-43.51c38.56,0,49.21,25.49,49.39,46.95h-26.18c-.36-7.32-1.94-26.01-24.01-26.01-14.73,0-21.59,8.85-21.59,20.95s5.87,18.49,28.42,26.88c32.81,12.18,46.97,23.95,46.97,51.41,0,29.97-19.35,47.53-53.68,47.53s-52.67-20.71-53.38-49.99h26.63,0Z"/><path class="cls-4" d="M301.91,69.76h26.9v162.02h-26.9V69.76Z"/><path class="cls-4" d="M456.72,148.98c0,57.34-20.25,85.81-58.6,85.81s-58.36-27.37-58.36-85.2,23.05-82.51,59.58-82.51,57.38,27.57,57.38,81.91h0ZM367.16,149.62c0,42.27,10.29,62.78,31.37,62.78s30.78-20.71,30.78-62.84-9.73-59.95-30.93-59.95-31.22,17.91-31.22,60.01Z"/><path class="cls-4" d="M467.25,119.93c0-33.18-.18-42.47-.33-50.17h25.97c.48,3.96.95,10.44.95,20.4,5.46-11.92,16.7-23.23,39.04-23.23,24.78,0,42.91,14,42.91,49.39v115.47h-27.08v-110.08c0-19.07-6.02-31.77-24.34-31.77-21,0-30.06,13.11-30.06,44.67v97.18h-27.08v-111.85h.02Z"/><path class="cls-4" d="M8.48,291.88c0-14.31,11-25.34,28.16-25.34,14.63,0,23.65,7.2,25.63,17.58h-14.63c-.99-4.21-4.84-7.39-10.34-7.39-9.02,0-13.64,5.89-13.64,15.15s4.29,15.15,13.42,15.15c6.05,0,10.34-2.71,11.33-8.13h14.41c-.99,10.19-10.34,18.33-25.41,18.33-17.82,0-28.93-11.03-28.93-25.34h0Z"/><path class="cls-4" d="M95.82,291.88c0-14.31,11.99-25.34,29.48-25.34s29.48,11.03,29.48,25.34-11.99,25.34-29.48,25.34-29.48-11.03-29.48-25.34ZM139.6,291.88c0-9.35-5.17-15.71-14.3-15.71s-14.3,6.36-14.3,15.71,5.06,15.62,14.3,15.62,14.3-6.26,14.3-15.62Z"/><path class="cls-4" d="M205.6,274.4h.33c3.85-5.14,9.02-7.85,16.72-7.85,11.66,0,19.47,7.48,19.47,17.95v31.32h-14.96v-29.45c0-5.14-3.52-8.79-9.79-8.79-6.6,0-11.44,4.49-11.44,11.03v27.21h-14.96v-47.97h14.63v6.55h0Z"/><path class="cls-4" d="M295.25,274.4h.33c3.85-5.14,9.02-7.85,16.72-7.85,11.66,0,19.47,7.48,19.47,17.95v31.32h-14.96v-29.45c0-5.14-3.52-8.79-9.79-8.79-6.6,0-11.44,4.49-11.44,11.03v27.21h-14.96v-47.97h14.63v6.55h0Z"/><path class="cls-4" d="M367.52,291.79c0-14.21,11.33-25.25,27.83-25.25,18.15,0,27.83,11.78,27.83,28.89h-40.92c1.1,7.39,5.94,11.97,14.41,11.97,5.83,0,9.24-2.24,10.89-5.89h14.74c-2.09,8.51-11,15.71-25.52,15.71-18.7,0-29.26-11.13-29.26-25.43h0ZM382.48,286.65h25.08c-.44-6.08-5.17-10.29-11.99-10.29-7.92,0-11.77,4.02-13.09,10.29Z"/><path class="cls-4" d="M456.62,291.88c0-14.31,11-25.34,28.16-25.34,14.63,0,23.65,7.2,25.63,17.58h-14.63c-.99-4.21-4.84-7.39-10.34-7.39-9.02,0-13.64,5.89-13.64,15.15s4.29,15.15,13.42,15.15c6.05,0,10.34-2.71,11.33-8.13h14.41c-.99,10.19-10.34,18.33-25.41,18.33-17.82,0-28.93-11.03-28.93-25.34h0Z"/><path class="cls-4" d="M543.41,267.85h7.81v-14.96h14.63v14.96h9.68v8.42h-9.68v25.43c0,3.55,2.31,4.77,5.61,4.77,1.87,0,4.4-.09,4.4-.09v9.35s-3.41.19-9.35.19c-7.26,0-15.29-2.43-15.29-11.5v-28.15h-7.81v-8.42h0Z"/><rect class="cls-2" x="8.05" y="352.22" width="568.55" height="7.06"/><path class="cls-4" d="M48.16,383.29l12.6,37.04h.15l11.92-37.04h16.67v53.86h-11.09v-38.17h-.15l-13.21,38.17h-9.13l-13.2-37.8h-.15v37.8h-11.09v-53.86h16.67,0Z"/><path class="cls-4" d="M98.03,409.2c.95-2.54,2.31-4.7,4.07-6.49,1.76-1.79,3.87-3.17,6.33-4.15,2.47-.98,5.23-1.47,8.3-1.47s5.85.49,8.34,1.47c2.49.98,4.62,2.36,6.37,4.15,1.76,1.79,3.12,3.94,4.07,6.49.96,2.54,1.43,5.37,1.43,8.48s-.48,5.93-1.43,8.45c-.96,2.51-2.31,4.66-4.07,6.45-1.76,1.79-3.89,3.16-6.37,4.11-2.49.95-5.27,1.43-8.34,1.43s-5.84-.48-8.3-1.43c-2.47-.96-4.58-2.32-6.33-4.11s-3.12-3.94-4.07-6.45c-.96-2.51-1.43-5.33-1.43-8.45s.48-5.95,1.43-8.48ZM107.76,422.26c.3,1.49.82,2.81,1.55,4,.73,1.18,1.7,2.12,2.91,2.83,1.21.7,2.72,1.06,4.53,1.06s3.33-.36,4.57-1.06c1.23-.7,2.22-1.65,2.95-2.83.73-1.18,1.25-2.51,1.55-4,.3-1.48.45-3,.45-4.57s-.15-3.09-.45-4.6-.82-2.84-1.55-4c-.73-1.16-1.71-2.1-2.95-2.83-1.23-.73-2.75-1.09-4.57-1.09s-3.32.36-4.53,1.09-2.18,1.67-2.91,2.83c-.73,1.16-1.25,2.49-1.55,4-.3,1.51-.45,3.04-.45,4.6s.15,3.08.45,4.57Z"/><path class="cls-4" d="M153.1,398.16v7.25h.15c.5-1.21,1.18-2.32,2.03-3.36.85-1.03,1.83-1.91,2.95-2.64,1.1-.73,2.28-1.3,3.54-1.7,1.26-.4,2.56-.6,3.93-.6.7,0,1.48.12,2.34.37v9.96c-.5-.1-1.1-.19-1.81-.27-.7-.08-1.38-.12-2.03-.12-1.96,0-3.62.33-4.98.98-1.35.65-2.45,1.55-3.28,2.68s-1.42,2.45-1.78,3.96c-.36,1.51-.53,3.15-.53,4.9v17.57h-10.71v-39.01h10.18Z"/><path class="cls-4" d="M206.02,440.02c-.43,2.01-1.34,3.89-2.75,5.62s-3.45,3.21-6.11,4.42c-2.67,1.21-6.24,1.81-10.71,1.81-1.91,0-3.86-.24-5.85-.72-1.99-.48-3.8-1.22-5.43-2.23-1.63-1.01-2.99-2.3-4.07-3.89-1.08-1.58-1.7-3.48-1.85-5.69h10.63c.5,2.02,1.48,3.41,2.95,4.18,1.46.78,3.14,1.17,5.06,1.17,3.01,0,5.22-.9,6.6-2.72,1.38-1.81,2.04-4.1,2-6.86v-5.13h-.15c-1.16,2.06-2.8,3.58-4.94,4.56s-4.39,1.47-6.75,1.47c-2.92,0-5.43-.52-7.54-1.55-2.11-1.03-3.85-2.44-5.2-4.22-1.36-1.79-2.35-3.87-2.98-6.26-.63-2.39-.94-4.91-.94-7.58,0-2.51.36-4.94,1.09-7.28.73-2.34,1.79-4.4,3.21-6.19,1.41-1.79,3.16-3.21,5.24-4.26,2.08-1.06,4.49-1.58,7.21-1.58,2.56,0,4.82.48,6.75,1.43,1.94.96,3.56,2.56,4.87,4.83h.15v-5.2h10.18v36.51c0,1.55-.21,3.34-.64,5.36h0ZM191.35,427.05c1.16-.6,2.11-1.41,2.87-2.42.76-1.01,1.32-2.15,1.7-3.44s.57-2.63.57-4.04c0-1.61-.15-3.13-.45-4.57-.3-1.43-.81-2.71-1.51-3.81-.7-1.1-1.63-1.99-2.79-2.64s-2.62-.98-4.38-.98c-1.51,0-2.8.3-3.89.9s-1.99,1.42-2.72,2.45c-.73,1.03-1.26,2.22-1.58,3.54-.33,1.33-.49,2.73-.49,4.18s.13,2.8.41,4.18c.28,1.38.76,2.63,1.43,3.73.68,1.1,1.57,2.02,2.68,2.72,1.1.7,2.49,1.06,4.15,1.06,1.51,0,2.84-.3,4-.9v.03Z"/><path class="cls-4" d="M213.83,410.15c.15-2.51.78-4.6,1.88-6.26,1.1-1.66,2.51-2.99,4.22-4,1.71-1.01,3.64-1.72,5.77-2.15,2.14-.42,4.29-.64,6.45-.64,1.96,0,3.94.13,5.96.41,2.02.28,3.85.82,5.51,1.62,1.66.81,3.01,1.92,4.07,3.36,1.06,1.43,1.58,3.33,1.58,5.69v20.29c0,1.76.1,3.45.3,5.06s.56,2.81,1.06,3.62h-10.87c-.2-.6-.36-1.22-.49-1.85-.12-.62-.21-1.27-.26-1.92-1.71,1.76-3.72,2.99-6.04,3.7-2.31.7-4.67,1.06-7.09,1.06-1.86,0-3.6-.23-5.2-.68-1.61-.45-3.01-1.16-4.22-2.11-1.21-.95-2.15-2.16-2.83-3.62-.68-1.46-1.02-3.2-1.02-5.2,0-2.21.39-4.04,1.17-5.47.78-1.43,1.79-2.57,3.01-3.44,1.23-.85,2.64-1.5,4.22-1.92s3.18-.77,4.79-1.02c1.61-.25,3.2-.45,4.75-.6s2.95-.37,4.15-.68,2.16-.74,2.87-1.32c.7-.58,1.03-1.42.98-2.52,0-1.16-.19-2.07-.57-2.75s-.88-1.21-1.51-1.58c-.63-.37-1.36-.62-2.19-.76-.83-.12-1.73-.19-2.68-.19-2.11,0-3.77.45-4.98,1.36-1.21.9-1.91,2.42-2.11,4.53h-10.71.02ZM238.57,418.07c-.45.4-1.02.72-1.7.94-.68.23-1.41.41-2.19.57s-1.59.28-2.45.37c-.85.11-1.71.23-2.56.37-.81.15-1.59.36-2.38.6-.78.25-1.46.6-2.03,1.02-.58.43-1.05.97-1.39,1.62-.36.65-.53,1.49-.53,2.49s.17,1.76.53,2.42c.36.65.83,1.17,1.43,1.55.6.37,1.31.64,2.11.8.81.15,1.63.23,2.49.23,2.11,0,3.74-.36,4.9-1.06,1.15-.7,2.02-1.55,2.56-2.52.56-.98.89-1.98,1.02-2.98.12-1.01.19-1.81.19-2.42v-4h0Z"/><path class="cls-4" d="M266.79,398.16v5.43h.23c1.36-2.27,3.12-3.91,5.28-4.94,2.16-1.03,4.38-1.55,6.64-1.55,2.87,0,5.22.39,7.05,1.17s3.28,1.86,4.34,3.24c1.06,1.38,1.79,3.07,2.23,5.06.42,1.99.64,4.18.64,6.6v24h-10.71v-22.03c0-3.22-.5-5.62-1.51-7.21-1.01-1.58-2.79-2.38-5.36-2.38-2.92,0-5.03.86-6.33,2.6-1.31,1.74-1.96,4.59-1.96,8.56v20.44h-10.71v-39.01h10.18-.02Z"/><path class="cls-4" d="M330.53,423.88c.65,1.26,1.52,2.27,2.6,3.05s2.35,1.36,3.81,1.74c1.46.37,2.97.57,4.53.57,1.06,0,2.19-.09,3.4-.27,1.21-.17,2.34-.52,3.4-1.02s1.94-1.19,2.64-2.07,1.06-2,1.06-3.36c0-1.46-.47-2.64-1.39-3.54-.93-.9-2.15-1.66-3.66-2.27s-3.22-1.13-5.13-1.58c-1.91-.45-3.85-.96-5.81-1.51-2.02-.5-3.97-1.12-5.88-1.85-1.91-.73-3.62-1.67-5.13-2.83-1.51-1.16-2.73-2.6-3.66-4.34s-1.39-3.84-1.39-6.3c0-2.76.6-5.16,1.78-7.21,1.18-2.03,2.73-3.73,4.64-5.1,1.91-1.35,4.07-2.36,6.49-3.01,2.41-.65,4.83-.98,7.25-.98,2.81,0,5.52.32,8.11.94,2.59.63,4.9,1.65,6.9,3.05,2.01,1.41,3.61,3.21,4.79,5.39,1.18,2.19,1.78,4.84,1.78,7.96h-11.47c-.11-1.61-.44-2.95-1.02-4s-1.34-1.88-2.3-2.49-2.05-1.03-3.28-1.29c-1.23-.25-2.58-.37-4.04-.37-.96,0-1.91.11-2.87.3-.96.2-1.82.56-2.6,1.06-.78.5-1.42,1.13-1.92,1.88-.5.76-.76,1.71-.76,2.87,0,1.06.2,1.91.6,2.56.4.65,1.19,1.26,2.38,1.81,1.18.56,2.81,1.1,4.9,1.66,2.08.56,4.82,1.26,8.19,2.11,1.01.2,2.4.57,4.18,1.09,1.79.53,3.56,1.37,5.32,2.52,1.76,1.16,3.28,2.71,4.56,4.64,1.29,1.94,1.92,4.42,1.92,7.43,0,2.47-.48,4.75-1.43,6.86-.95,2.11-2.38,3.94-4.26,5.47s-4.22,2.73-7.02,3.58c-2.79.85-6.03,1.29-9.69,1.29-2.97,0-5.85-.36-8.64-1.09s-5.26-1.87-7.39-3.44c-2.14-1.55-3.84-3.54-5.1-5.96-1.26-2.42-1.86-5.28-1.81-8.6h11.47c0,1.81.33,3.35.98,4.6l-.02.04Z"/><path class="cls-4" d="M389.75,398.16v7.17h-7.84v19.31c0,1.81.3,3.01.9,3.62.6.6,1.81.9,3.62.9.6,0,1.18-.03,1.74-.08s1.08-.12,1.58-.23v8.3c-.9.15-1.91.25-3.01.3-1.1.05-2.19.08-3.24.08-1.66,0-3.23-.12-4.71-.34-1.49-.23-2.79-.66-3.93-1.32-1.13-.65-2.03-1.58-2.68-2.79-.65-1.21-.98-2.79-.98-4.75v-23.01h-6.49v-7.17h6.49v-11.69h10.71v11.69h7.84Z"/><path class="cls-4" d="M393.45,410.15c.15-2.51.78-4.6,1.89-6.26,1.1-1.66,2.51-2.99,4.22-4,1.71-1.01,3.64-1.72,5.77-2.15,2.14-.42,4.29-.64,6.45-.64,1.96,0,3.94.13,5.96.41,2.02.28,3.85.82,5.51,1.62,1.66.81,3.01,1.92,4.07,3.36,1.06,1.43,1.58,3.33,1.58,5.69v20.29c0,1.76.1,3.45.3,5.06s.56,2.81,1.06,3.62h-10.87c-.2-.6-.36-1.22-.49-1.85-.12-.62-.21-1.27-.27-1.92-1.71,1.76-3.72,2.99-6.04,3.7s-4.67,1.06-7.09,1.06c-1.86,0-3.6-.23-5.2-.68-1.61-.45-3.01-1.16-4.22-2.11-1.21-.95-2.15-2.16-2.83-3.62-.68-1.46-1.02-3.2-1.02-5.2,0-2.21.39-4.04,1.17-5.47.78-1.43,1.79-2.57,3.01-3.44,1.23-.85,2.64-1.5,4.22-1.92s3.18-.77,4.79-1.02,3.2-.45,4.75-.6c1.55-.15,2.95-.37,4.15-.68,1.21-.3,2.16-.74,2.87-1.32.7-.58,1.03-1.42.98-2.52,0-1.16-.19-2.07-.57-2.75-.37-.68-.88-1.21-1.51-1.58-.63-.37-1.36-.62-2.19-.76-.84-.12-1.73-.19-2.68-.19-2.11,0-3.77.45-4.98,1.36s-1.91,2.42-2.11,4.53h-10.71.02ZM418.2,418.07c-.45.4-1.02.72-1.7.94-.68.23-1.41.41-2.19.57s-1.59.28-2.45.37c-.85.11-1.71.23-2.56.37-.81.15-1.59.36-2.38.6-.78.25-1.46.6-2.03,1.02s-1.05.97-1.39,1.62c-.36.65-.53,1.49-.53,2.49s.17,1.76.53,2.42c.36.65.84,1.17,1.43,1.55.6.37,1.31.64,2.11.8.81.15,1.63.23,2.49.23,2.11,0,3.74-.36,4.9-1.06s2.01-1.55,2.56-2.52c.56-.98.89-1.98,1.02-2.98.12-1.01.19-1.81.19-2.42v-4h0Z"/><path class="cls-4" d="M446.41,398.16v5.43h.23c1.35-2.27,3.12-3.91,5.28-4.94,2.16-1.03,4.38-1.55,6.64-1.55,2.87,0,5.22.39,7.05,1.17s3.28,1.86,4.34,3.24,1.79,3.07,2.23,5.06c.42,1.99.64,4.18.64,6.6v24h-10.71v-22.03c0-3.22-.5-5.62-1.51-7.21-1.01-1.58-2.79-2.38-5.36-2.38-2.92,0-5.03.86-6.33,2.6-1.31,1.74-1.96,4.59-1.96,8.56v20.44h-10.71v-39.01h10.18-.02Z"/><path class="cls-4" d="M491,383.29v53.86h-10.71v-53.86h10.71Z"/><path class="cls-4" d="M509.93,427.81c1.61,1.55,3.93,2.34,6.94,2.34,2.16,0,4.02-.54,5.59-1.62,1.55-1.08,2.51-2.23,2.87-3.44h9.43c-1.51,4.67-3.82,8.02-6.94,10.03-3.12,2.02-6.89,3.01-11.32,3.01-3.07,0-5.84-.49-8.3-1.47s-4.55-2.38-6.26-4.18c-1.71-1.81-3.03-3.97-3.96-6.49-.93-2.51-1.39-5.28-1.39-8.3s.48-5.63,1.43-8.15c.96-2.51,2.31-4.69,4.08-6.53,1.76-1.83,3.86-3.28,6.3-4.34,2.44-1.06,5.14-1.58,8.11-1.58,3.32,0,6.21.64,8.68,1.92,2.47,1.29,4.49,3,6.08,5.16s2.73,4.63,3.44,7.39c.7,2.76.96,5.65.76,8.68h-28.14c.15,3.47,1.03,5.99,2.64,7.54l-.02.02ZM522.05,407.29c-1.29-1.41-3.23-2.11-5.85-2.11-1.71,0-3.13.29-4.26.86s-2.03,1.3-2.72,2.15c-.68.85-1.16,1.76-1.43,2.72-.28.96-.44,1.81-.49,2.56h17.43c-.5-2.72-1.39-4.78-2.68-6.19h0Z"/><path class="cls-4" d="M555.2,448.78c-2.06,1.36-4.93,2.03-8.6,2.03-1.1,0-2.2-.04-3.28-.12s-2.18-.16-3.28-.27v-8.83c1.01.1,2.03.2,3.09.3s2.11.12,3.17.08c1.41-.15,2.45-.7,3.13-1.66s1.02-2.02,1.02-3.17c0-.85-.15-1.66-.45-2.42l-13.66-36.59h11.39l8.83,26.71h.15l8.52-26.71h11.09l-16.3,43.83c-1.16,3.17-2.76,5.43-4.83,6.79v.02Z"/><path class="cls-4" d="M15.72,420.03l6.6,16.89h-2.49l-1.85-5.09h-7.14l-1.89,5.09h-2.3l6.58-16.89h2.49ZM17.28,429.94l-2.82-7.88h-.05l-2.87,7.88h5.73Z"/><path class="cls-1" d="M584.46,313.06c0-.26-.1-.46-.29-.59-.2-.13-.44-.24-.72-.32-.29-.09-.6-.17-.94-.25s-.65-.2-.94-.37-.53-.38-.72-.66c-.2-.28-.29-.66-.29-1.14,0-.33.07-.62.21-.87s.33-.47.56-.64c.23-.18.49-.31.79-.4.29-.09.59-.13.9-.13s.63.05.93.15.57.25.81.45.44.46.59.77.24.68.25,1.1h-1.18c0-.23-.03-.43-.1-.6-.07-.17-.18-.31-.31-.42-.13-.11-.28-.19-.45-.24s-.34-.08-.51-.08c-.16,0-.31.02-.46.06s-.28.1-.4.18c-.11.08-.21.17-.28.28s-.11.24-.11.39c0,.27.1.49.29.64.19.15.43.28.73.38.29.1.61.19.94.28s.65.21.94.37c.29.15.53.36.72.62.19.26.29.61.29,1.04,0,.33-.07.62-.21.87s-.33.46-.56.64c-.24.18-.5.31-.8.4s-.6.13-.92.13-.64-.05-.95-.14-.59-.24-.84-.45c-.25-.2-.45-.46-.61-.77s-.24-.68-.25-1.1h1.18c0,.23.03.43.11.6.08.17.19.31.33.42s.3.19.47.24c.18.05.36.08.54.08.17,0,.33-.02.48-.06.15-.04.29-.1.42-.17.12-.08.22-.17.29-.28s.11-.24.11-.39l-.04-.02Z"/><path class="cls-1" d="M586.54,314.99l1.08-7.21h1.13l1.25,4.29,1.35-4.29h1.15l1.08,7.21h-1.1l-.74-4.9-1.21,3.84h-1.13l-1.06-3.66-.71,4.72h-1.1,0Z"/><path class="cls-4" d="M454.07,465.81c-1.14-.8-2.51-1.2-4.09-1.2-1.35,0-2.5.25-3.45.76-.96.51-1.74,1.18-2.36,2.04-.62.85-1.08,1.83-1.37,2.92-.3,1.09-.44,2.23-.44,3.4,0,1.28.15,2.5.44,3.64.3,1.14.75,2.14,1.37,3,.63.86,1.41,1.53,2.38,2.03.97.51,2.12.76,3.47.76.99,0,1.86-.17,2.63-.49.77-.32,1.43-.77,1.98-1.36s1-1.26,1.31-2.07c.31-.8.51-1.66.57-2.58h3c-.3,2.84-1.27,5.05-2.93,6.62s-3.93,2.36-6.81,2.36c-1.74,0-3.27-.3-4.58-.89-1.3-.6-2.39-1.42-3.25-2.47-.86-1.05-1.5-2.29-1.94-3.72-.43-1.43-.65-2.96-.65-4.6s.23-3.18.69-4.62c.46-1.44,1.14-2.69,2.03-3.76.89-1.07,2-1.92,3.34-2.54,1.34-.62,2.86-.93,4.58-.93,1.18,0,2.29.16,3.34.47,1.05.31,1.98.77,2.8,1.38s1.5,1.37,2.05,2.29c.54.91.9,1.97,1.07,3.16h-3c-.34-1.6-1.08-2.8-2.22-3.6h.02Z"/><path class="cls-4" d="M462.41,473.64c.33-1.04.84-1.95,1.51-2.71.67-.77,1.5-1.37,2.49-1.81.99-.44,2.12-.66,3.4-.66s2.44.22,3.42.66,1.8,1.04,2.47,1.81c.67.77,1.18,1.67,1.51,2.71.33,1.04.51,2.16.51,3.36s-.17,2.32-.51,3.34-.84,1.93-1.51,2.69c-.67.77-1.49,1.37-2.47,1.8s-2.11.65-3.42.65-2.42-.21-3.4-.65-1.82-1.03-2.49-1.8c-.67-.77-1.18-1.67-1.51-2.69-.34-1.03-.51-2.14-.51-3.34s.17-2.32.51-3.36ZM465.13,479.63c.26.77.63,1.41,1.09,1.92.46.52,1.01.91,1.62,1.18.62.28,1.27.41,1.97.41s1.35-.14,1.97-.41c.62-.28,1.16-.66,1.62-1.18s.82-1.15,1.09-1.92c.27-.77.4-1.64.4-2.63s-.13-1.86-.4-2.63c-.27-.77-.63-1.41-1.09-1.94s-1.01-.92-1.62-1.2-1.27-.41-1.97-.41-1.35.14-1.97.41c-.62.28-1.16.67-1.62,1.2-.46.53-.82,1.17-1.09,1.94-.27.77-.4,1.64-.4,2.63s.13,1.86.4,2.63Z"/><path class="cls-4" d="M483.39,468.83v2.4h.06c1.22-1.85,2.97-2.78,5.27-2.78,1.01,0,1.92.21,2.74.63.82.42,1.39,1.13,1.73,2.14.54-.89,1.26-1.57,2.16-2.05.89-.48,1.87-.73,2.95-.73.82,0,1.56.09,2.22.27s1.23.46,1.71.84c.47.38.84.87,1.11,1.47s.4,1.32.4,2.16v11.95h-2.68v-10.68c0-.51-.05-.98-.13-1.42s-.24-.82-.47-1.15-.55-.58-.96-.77-.94-.29-1.6-.29c-1.33,0-2.36.38-3.12,1.13s-1.13,1.76-1.13,3.03v10.15h-2.68v-10.68c0-.53-.05-1.01-.14-1.45s-.26-.82-.49-1.15c-.23-.32-.54-.58-.93-.76s-.89-.27-1.49-.27c-.77,0-1.45.16-2,.47s-1.01.69-1.36,1.13-.6.89-.76,1.37c-.16.47-.24.87-.24,1.18v10.15h-2.68v-16.3h2.52l-.02.02Z"/><path class="cls-4" d="M510.54,468.83v2.2h.06c.44-.9,1.13-1.56,2.08-1.97s1.98-.62,3.12-.62c1.26,0,2.36.23,3.29.69s1.72,1.09,2.33,1.87c.62.78,1.09,1.7,1.4,2.73s.47,2.12.47,3.27-.16,2.25-.46,3.27c-.3,1.03-.77,1.93-1.38,2.69-.62.77-1.4,1.37-2.33,1.81s-2.02.66-3.27.66c-.4,0-.85-.05-1.34-.13-.5-.08-.99-.22-1.47-.41-.48-.19-.94-.44-1.37-.77s-.79-.73-1.09-1.22h-.06v8.39h-2.68v-22.51h2.68v.03ZM520.18,474.62c-.2-.73-.51-1.37-.91-1.94s-.93-1.01-1.58-1.36c-.64-.33-1.39-.51-2.25-.51s-1.67.18-2.3.54c-.63.36-1.14.82-1.54,1.4s-.69,1.24-.87,1.97c-.18.74-.27,1.49-.27,2.24,0,.8.09,1.57.29,2.32s.49,1.4.89,1.97c.41.57.94,1.02,1.6,1.37.66.35,1.44.52,2.36.52s1.7-.18,2.32-.54c.62-.36,1.12-.83,1.49-1.42s.66-1.26.82-2.02.25-1.53.25-2.33c0-.76-.1-1.49-.3-2.22h0Z"/><path class="cls-4" d="M540.9,485.07c-.46.28-1.11.41-1.92.41-.69,0-1.25-.19-1.65-.58s-.62-1.02-.62-1.91c-.74.89-1.6,1.52-2.57,1.91s-2.03.58-3.16.58c-.74,0-1.43-.08-2.09-.25s-1.24-.43-1.72-.78c-.48-.36-.87-.82-1.15-1.4s-.42-1.27-.42-2.09c0-.92.16-1.68.47-2.27.31-.59.73-1.07,1.25-1.43.52-.37,1.11-.65,1.76-.84.66-.18,1.34-.35,2.03-.47.74-.15,1.43-.26,2.09-.33.66-.07,1.25-.18,1.75-.31.51-.14.9-.33,1.2-.6.3-.26.44-.65.44-1.15,0-.59-.11-1.06-.33-1.42s-.51-.63-.85-.82-.74-.31-1.16-.38c-.43-.06-.86-.09-1.27-.09-1.13,0-2.08.21-2.84.65s-1.16,1.25-1.23,2.44h-2.68c.04-1.01.25-1.86.63-2.56s.89-1.25,1.51-1.69,1.35-.74,2.16-.93,1.68-.29,2.6-.29c.74,0,1.47.06,2.2.16.73.1,1.38.32,1.97.65s1.06.78,1.42,1.37c.36.59.54,1.36.54,2.3v8.37c0,.63.04,1.09.11,1.38s.32.44.74.44c.23,0,.51-.04.82-.13v2.08h-.02ZM536.55,476.71c-.34.25-.77.43-1.33.55s-1.12.21-1.72.29c-.6.07-1.2.16-1.81.25-.61.09-1.15.25-1.64.45-.48.21-.88.51-1.18.89s-.46.91-.46,1.59c0,.44.09.81.27,1.12s.41.55.69.74.62.32,1,.41c.38.08.77.13,1.2.13.89,0,1.64-.12,2.27-.36s1.14-.54,1.54-.91.69-.77.89-1.19.29-.83.29-1.21v-2.73h0Z"/><path class="cls-4" d="M545.91,468.83v2.58h.06c1.12-1.97,2.88-2.96,5.3-2.96,1.07,0,1.96.15,2.68.44.71.3,1.29.7,1.73,1.23.44.53.75,1.15.93,1.87.18.73.27,1.53.27,2.41v10.72h-2.68v-11.03c0-1.01-.3-1.81-.89-2.4s-1.4-.89-2.43-.89c-.82,0-1.53.13-2.13.38s-1.1.61-1.49,1.07-.7,1.01-.89,1.62c-.2.62-.3,1.3-.3,2.04v9.21h-2.68v-16.3h2.52,0Z"/><path class="cls-4" d="M567.33,487.3c-.31.8-.63,1.47-.93,2.02s-.65,1-1.01,1.34c-.37.35-.77.6-1.23.76s-.97.24-1.56.24c-.31,0-.63-.02-.94-.06-.31-.05-.62-.12-.91-.22v-2.46c.23.1.5.19.8.27.3.07.56.11.77.11.54,0,1.01-.13,1.37-.4.37-.27.65-.64.84-1.12l1.11-2.74-6.47-16.21h3.03l4.76,13.34h.06l4.58-13.34h2.84l-7.09,18.48h-.03Z"/></g></svg>